<svg xmlns="http://www.w3.org/2000/svg" viewBox="0 0 370 260" width="370" height="260"><rect x="0" y="0" width="370" height="260" fill="white"/><g transform="translate(25 25)"><g><g><line x1="0" y1="25" x2="320" y2="25" stroke="black" stroke-width="2"/><polyline points="310,19.226497308103742 320,25 310,30.773502691896258" fill="none" stroke="black" stroke-width="2" stroke-linecap="square"/></g><g transform="translate(269 0)"><line x1="0" y1="0" x2="0" y2="50" stroke="black" stroke-width="2"/></g><g transform="translate(220 0)"><ellipse cx="20" cy="25" rx="19" ry="19" fill="hsl(147, 60%, 80%)" stroke="black" stroke-width="2"/><text x="0" y="0" fill="black" font-family="Arial, Helvetica, sans-serif" font-size="18px" font-weight="normal" font-style="normal" dominant-baseline="middle" text-anchor="middle" transform="translate(20 25)">3</text></g><g transform="translate(130 0)"><ellipse cx="20" cy="25" rx="19" ry="19" fill="hsl(206, 60%, 80%)" stroke="black" stroke-width="2"/><text x="0" y="0" fill="black" font-family="Arial, Helvetica, sans-serif" font-size="18px" font-weight="normal" font-style="normal" dominant-baseline="middle" text-anchor="middle" transform="translate(20 25)">2</text></g><g transform="translate(40 0)"><ellipse cx="20" cy="25" rx="19" ry="19" fill="hsl(35, 60%, 80%)" stroke="black" stroke-width="2"/><text x="0" y="0" fill="black" font-family="Arial, Helvetica, sans-serif" font-size="18px" font-weight="normal" font-style="normal" dominant-baseline="middle" text-anchor="middle" transform="translate(20 25)">1</text></g></g><g transform="translate(0 70)"><rect x="0" y="10" width="320" height="48" fill="white" stroke="black" stroke-width="2" rx="0"/><text x="160" y="35px" fill="black" font-family="Arial, Helvetica, sans-serif" font-size="24px" font-weight="normal" font-style="normal" dominant-baseline="middle" text-anchor="middle" width="320">filter(n => n % 2 != 0)</text></g><g transform="translate(0 160)"><g><line x1="0" y1="25" x2="320" y2="25" stroke="black" stroke-width="2"/><polyline points="310,19.226497308103742 320,25 310,30.773502691896258" fill="none" stroke="black" stroke-width="2" stroke-linecap="square"/></g><g transform="translate(269 0)"><line x1="0" y1="0" x2="0" y2="50" stroke="black" stroke-width="2"/></g><g transform="translate(220 0)"><ellipse cx="20" cy="25" rx="19" ry="19" fill="hsl(147, 60%, 80%)" stroke="black" stroke-width="2"/><text x="0" y="0" fill="black" font-family="Arial, Helvetica, sans-serif" font-size="18px" font-weight="normal" font-style="normal" dominant-baseline="middle" text-anchor="middle" transform="translate(20 25)">3</text></g><g transform="translate(40 0)"><ellipse cx="20" cy="25" rx="19" ry="19" fill="hsl(35, 60%, 80%)" stroke="black" stroke-width="2"/><text x="0" y="0" fill="black" font-family="Arial, Helvetica, sans-serif" font-size="18px" font-weight="normal" font-style="normal" dominant-baseline="middle" text-anchor="middle" transform="translate(20 25)">1</text></g></g></g></svg>