<svg xmlns="http://www.w3.org/2000/svg" viewBox="0 0 250 320" width="250" height="320"><rect x="0" y="0" width="250" height="320" fill="white"/><g transform="translate(25 25)"><g><g><line x1="0" y1="40" x2="200" y2="40" stroke="black" stroke-width="2"/><polyline points="190,34.226497308103745 200,40 190,45.773502691896255" fill="none" stroke="black" stroke-width="2" stroke-linecap="square"/></g><g transform="translate(119 0)"><line x1="0" y1="15" x2="0" y2="65" stroke="black" stroke-width="2"/></g><g transform="translate(20 0)"><ellipse cx="40" cy="40" rx="39" ry="39" fill="hsl(35, 60%, 80%)" stroke="black" stroke-width="2"/><text x="0" y="0" fill="black" font-family="Arial, Helvetica, sans-serif" font-size="18px" font-weight="normal" font-style="normal" dominant-baseline="middle" text-anchor="middle" transform="translate(40 40)">1</text></g></g><g transform="translate(0 100)"><rect x="0" y="10" width="200" height="48" fill="white" stroke="black" stroke-width="2" rx="0"/><text x="100" y="35px" fill="black" font-family="Arial, Helvetica, sans-serif" font-size="24px" font-weight="normal" font-style="normal" dominant-baseline="middle" text-anchor="middle" width="200">map(1 => {a: 1})</text></g><g transform="translate(0 190)"><g><line x1="0" y1="40" x2="200" y2="40" stroke="black" stroke-width="2"/><polyline points="190,34.226497308103745 200,40 190,45.773502691896255" fill="none" stroke="black" stroke-width="2" stroke-linecap="square"/></g><g transform="translate(119 0)"><line x1="0" y1="15" x2="0" y2="65" stroke="black" stroke-width="2"/></g><g transform="translate(20 0)"><ellipse cx="40" cy="40" rx="39" ry="39" fill="hsl(257, 60%, 80%)" stroke="black" stroke-width="2"/><text x="0" y="0" fill="black" font-family="Arial, Helvetica, sans-serif" font-size="18px" font-weight="normal" font-style="normal" dominant-baseline="middle" text-anchor="middle" transform="translate(40 40)">{ a: 1 }</text></g></g></g></svg>